<?xml version="1.0" encoding="UTF-8" standalone="no"?>
<svg
   xmlns:dc="http://purl.org/dc/elements/1.1/"
   xmlns:cc="http://creativecommons.org/ns#"
   xmlns:rdf="http://www.w3.org/1999/02/22-rdf-syntax-ns#"
   xmlns:svg="http://www.w3.org/2000/svg"
   xmlns="http://www.w3.org/2000/svg"
   width="42.436886mm"
   height="10.60398mm"
   viewBox="0 0 42.436884 10.60398"
   version="1.1"
   id="svg8">
  <defs
     id="defs2" />
  <metadata
     id="metadata5">
    <rdf:RDF>
      <cc:Work
         rdf:about="">
        <dc:format>image/svg+xml</dc:format>
        <dc:type
           rdf:resource="http://purl.org/dc/dcmitype/StillImage" />
        <dc:title></dc:title>
      </cc:Work>
    </rdf:RDF>
  </metadata>
  <g
     id="layer1"
     transform="translate(-9.8161822,-43.909023)">
    <g
       id="g1566">
      <path
         id="path2272-0"
         style="font-style:normal;font-variant:normal;font-weight:normal;font-stretch:normal;font-size:38.838px;line-height:1.25;font-family:bodidota;-inkscape-font-specification:bodidota;letter-spacing:-2.64583px;fill:#b52267;fill-opacity:1;stroke:none;stroke-width:0.290999"
         d="m 11.693497,45.416138 a 1.1471922,1.1471922 0 0 1 -0.864618,0.820776 v 0.826622 H 9.8161822 v 0.151004 0.07648 h 1.0126968 v 2.810616 c 0,0.294877 0.01521,0.539099 0.04628,0.7331 0.0388,0.193998 0.105137,0.349271 0.198253,0.465676 0.09312,0.108636 0.21695,0.186282 0.372151,0.232837 0.155199,0.04657 0.353225,0.06966 0.593786,0.06966 0.86912,0 1.392931,-0.368537 1.571411,-1.105737 h -0.139801 c -0.01554,0.131919 -0.05827,0.252312 -0.128109,0.360948 -0.06985,0.108646 -0.154852,0.201517 -0.255731,0.279113 -0.10088,0.07758 -0.209965,0.139998 -0.326362,0.186563 -0.116402,0.04656 -0.224507,0.06966 -0.325389,0.06966 -0.21728,0 -0.357322,-0.08897 -0.419401,-0.267421 -0.05432,-0.186242 -0.08135,-0.504655 -0.08135,-0.954734 v -2.880273 h 1.354648 v -0.22748 h -0.0044 -1.350264 V 45.41615 Z" />
      <path
         d="m 18.323508,49.298291 q 0,-0.512159 -0.174601,-0.942839 -0.174599,-0.442321 -0.488879,-0.756597 -0.302641,-0.314286 -0.733323,-0.488886 -0.43068,-0.186241 -0.942841,-0.186241 -0.48888,0 -0.919562,0.186241 -0.430681,0.1746 -0.744961,0.500527 -0.314281,0.314277 -0.500521,0.744956 -0.174601,0.43068 -0.174601,0.931207 0,0.500518 0.174601,0.942839 0.18624,0.430679 0.500521,0.756597 0.31428,0.314286 0.733321,0.500527 0.430681,0.186242 0.907922,0.186242 0.48888,0 0.907922,-0.186242 0.43068,-0.197882 0.756601,-0.512168 0.32592,-0.325918 0.512162,-0.756598 0.186239,-0.430679 0.186239,-0.919565 z m -3.212647,-1.687795 q 0.104767,-0.197883 0.337561,-0.372483 0.232801,-0.1746 0.535442,-0.1746 0.30264,0 0.5238,0.1746 0.232802,0.162959 0.349201,0.372483 0.13968,0.267711 0.162961,0.663477 0,0.162959 0,0.419038 0.01159,0.25608 0.01159,0.60528 0,0.337568 -0.01159,0.593648 0,0.256079 0,0.419038 -0.01159,0.197883 -0.04656,0.372483 -0.03492,0.162959 -0.116402,0.302635 -0.104753,0.197883 -0.349201,0.384124 -0.232799,0.186241 -0.535441,0.186241 -0.302641,0 -0.523801,-0.186241 -0.22116,-0.186241 -0.337561,-0.384124 -0.13968,-0.267721 -0.162961,-0.675118 0,-0.162959 -0.01159,-0.419038 0,-0.25608 0,-0.593648 0,-0.3492 0,-0.60528 0.01159,-0.256079 0.01159,-0.419038 0.02328,-0.395766 0.162961,-0.663477 z"
         style="font-style:normal;font-variant:normal;font-weight:normal;font-stretch:normal;font-size:38.838px;line-height:1.25;font-family:bodidota;-inkscape-font-specification:bodidota;letter-spacing:-2.64583px;fill:#b52267;fill-opacity:1;stroke:none;stroke-width:0.291"
         id="path2274-9" />
      <path
         id="path2276-7"
         style="font-style:normal;font-variant:normal;font-weight:normal;font-stretch:normal;font-size:38.838px;line-height:1.25;font-family:bodidota;-inkscape-font-specification:bodidota;letter-spacing:-2.64583px;fill:#b52267;fill-opacity:1;stroke:none;stroke-width:0.290999"
         d="m 21.150492,46.923791 c -0.29488,0 -0.554756,0.07734 -0.779797,0.232545 -0.225041,0.155202 -0.426651,0.399614 -0.605131,0.733288 h -0.02377 v -0.598411 -0.227894 h -1.943551 v 0.151411 0.07648 h 0.803568 v 6.994403 h -0.102837 -0.700732 v 0.0181 0.20929 h 2.644283 v -0.20929 -0.0181 h -0.700732 v -1.882571 -1.614374 h 0.02377 c 0.32592,0.5432 0.75286,0.814422 1.280542,0.814422 0.287121,0 0.561947,-0.06597 0.825789,-0.197921 0.271599,-0.131919 0.508789,-0.3062 0.710551,-0.523481 0.201759,-0.217273 0.36109,-0.46994 0.47749,-0.75706 0.124163,-0.287118 0.186035,-0.58928 0.186035,-0.907439 0,-0.325927 -0.05466,-0.628592 -0.163297,-0.907955 -0.108636,-0.279358 -0.256111,-0.520163 -0.44235,-0.721918 -0.186242,-0.209524 -0.407445,-0.37246 -0.663526,-0.48886 -0.256079,-0.116404 -0.531424,-0.174668 -0.826306,-0.174668 z m -0.04651,0.139528 c 0.318162,0 0.539365,0.116536 0.663526,0.349332 0.124164,0.225036 0.189645,0.58959 0.197404,1.093989 l 0.01188,0.826307 c 0.01554,0.776007 -0.04223,1.327211 -0.17415,1.65313 -0.13192,0.318159 -0.364983,0.476972 -0.698665,0.476972 -0.13192,0 -0.260314,-0.0232 -0.384473,-0.06976 -0.116401,-0.05429 -0.228289,-0.119798 -0.33693,-0.197403 -0.10088,-0.0854 -0.19421,-0.178689 -0.279569,-0.279569 -0.08535,-0.108635 -0.15136,-0.217432 -0.197921,-0.32608 -0.0388,-0.08531 -0.06974,-0.163222 -0.09302,-0.233059 -0.01554,-0.06985 -0.03099,-0.14719 -0.04651,-0.232544 -0.0077,-0.09313 -0.01601,-0.205013 -0.02377,-0.336931 V 49.286954 48.83272 c 0.0077,-0.124169 0.01962,-0.232957 0.03514,-0.32608 0.02327,-0.100875 0.0506,-0.194215 0.08165,-0.279569 0.03103,-0.0854 0.07384,-0.178165 0.128158,-0.279051 0.124164,-0.232799 0.282975,-0.438534 0.476973,-0.617016 0.201762,-0.178486 0.415231,-0.267685 0.640271,-0.267685 z" />
      <path
         id="path2278-5"
         style="font-style:normal;font-variant:normal;font-weight:normal;font-stretch:normal;font-size:38.838px;line-height:1.25;font-family:bodidota;-inkscape-font-specification:bodidota;letter-spacing:-2.64583px;fill:#2c2c2b;fill-opacity:1;stroke:none;stroke-width:0.290999"
         d="m 28.638054,46.993393 c -0.403524,0 -0.733726,0.08546 -0.989805,0.25622 -0.256081,0.170727 -0.47327,0.450306 -0.651753,0.838315 h -0.02337 v -0.796912 -0.22748 H 25.06415 v 0.151004 0.07648 h 0.791552 v 4.014749 H 25.06415 v 0.08768 0.139801 h 0.698513 1.94405 v -0.139801 -0.08768 H 27.0082 26.973127 v -1.495422 -0.407224 c 0,-0.155202 0.004,-0.287383 0.0117,-0.396019 0.0077,-0.116403 0.01955,-0.221063 0.03507,-0.314184 0.01554,-0.09313 0.03469,-0.178625 0.05797,-0.256221 0.03103,-0.0854 0.06986,-0.1743 0.116417,-0.267421 0.131917,-0.279362 0.302916,-0.496549 0.512439,-0.651751 0.209515,-0.16296 0.426712,-0.244528 0.65175,-0.244528 0.108636,0 0.19414,0.01526 0.256221,0.04628 0.06985,0.03101 0.123894,0.09347 0.162693,0.186561 0.03884,0.08531 0.06241,0.213116 0.07014,0.38384 0.01556,0.162961 0.02676,0.380636 0.03458,0.65224 l 0.0117,0.500261 v 2.263592 h -0.744789 v 0.08768 0.139801 h 0.640059 1.944052 v -0.139801 -0.08768 h -0.640062 -0.09352 v -1.541698 -0.38433 c 0,-0.193998 0.01566,-0.380237 0.04676,-0.558712 0.03101,-0.186242 0.07777,-0.360684 0.139801,-0.523642 0.108636,-0.287118 0.279153,-0.527896 0.51195,-0.721894 0.232807,-0.201757 0.469639,-0.302494 0.710205,-0.302494 0.178472,0 0.306731,0.05406 0.384327,0.162693 0.07758,0.108646 0.115933,0.298801 0.115933,0.570404 v 0.430603 2.86907 h -0.7331 v 0.08768 0.139801 h 0.698513 1.943564 v -0.139801 -0.08768 h -0.698514 -0.09304 v -2.356631 -0.372638 c 0,-0.100877 -0.0034,-0.185892 -0.0112,-0.255731 -0.0075,-0.06985 -0.01556,-0.13224 -0.02337,-0.186564 -0.0075,-0.05429 -0.01564,-0.112304 -0.02337,-0.174385 -0.06212,-0.294878 -0.213421,-0.527797 -0.453985,-0.698513 -0.232797,-0.178483 -0.519766,-0.26791 -0.861206,-0.26791 -0.325918,0 -0.628609,0.08554 -0.907972,0.25622 -0.170726,0.108636 -0.310764,0.229029 -0.4194,0.360946 -0.108646,0.124161 -0.213306,0.30646 -0.314183,0.547023 h -0.02339 c -0.03874,-0.380249 -0.174425,-0.667198 -0.407222,-0.861206 -0.232807,-0.201757 -0.546799,-0.302983 -0.942553,-0.302983 z" />
      <path
         d="m 38.006619,49.298291 q 0,-0.512159 -0.1746,-0.942839 -0.1746,-0.442321 -0.488877,-0.756597 -0.302644,-0.314286 -0.733324,-0.488886 -0.43068,-0.186241 -0.942839,-0.186241 -0.488886,0 -0.919565,0.186241 -0.43068,0.1746 -0.744966,0.500527 -0.314276,0.314277 -0.500518,0.744956 -0.1746,0.43068 -0.1746,0.931207 0,0.500518 0.1746,0.942839 0.186242,0.430679 0.500518,0.756597 0.314286,0.314286 0.733324,0.500527 0.43068,0.186242 0.907925,0.186242 0.488876,0 0.907924,-0.186242 0.43068,-0.197882 0.756597,-0.512168 0.325918,-0.325918 0.512159,-0.756598 0.186242,-0.430679 0.186242,-0.919565 z m -3.21265,-1.687795 q 0.104772,-0.197883 0.337569,-0.372483 0.232797,-0.1746 0.535441,-0.1746 0.302635,0 0.523801,0.1746 0.232797,0.162959 0.3492,0.372483 0.139676,0.267711 0.162959,0.663477 0,0.162959 0,0.419038 0.01159,0.25608 0.01159,0.60528 0,0.337568 -0.01159,0.593648 0,0.256079 0,0.419038 -0.01159,0.197883 -0.04657,0.372483 -0.03488,0.162959 -0.116394,0.302635 -0.104762,0.197883 -0.3492,0.384124 -0.232807,0.186241 -0.535451,0.186241 -0.302636,0 -0.523801,-0.186241 -0.221155,-0.186241 -0.337559,-0.384124 -0.139676,-0.267721 -0.162959,-0.675118 0,-0.162959 -0.01159,-0.419038 0,-0.25608 0,-0.593648 0,-0.3492 0,-0.60528 0.01159,-0.256079 0.01159,-0.419038 0.02328,-0.395766 0.162959,-0.663477 z"
         style="font-style:normal;font-variant:normal;font-weight:normal;font-stretch:normal;font-size:38.838px;line-height:1.25;font-family:bodidota;-inkscape-font-specification:bodidota;letter-spacing:-2.64583px;fill:#2c2c2b;fill-opacity:1;stroke:none;stroke-width:0.291"
         id="path2280-9" />
      <path
         id="path2282-7"
         style="font-style:normal;font-variant:normal;font-weight:normal;font-stretch:normal;font-size:38.838px;line-height:1.25;font-family:bodidota;-inkscape-font-specification:bodidota;letter-spacing:-2.64583px;fill:#2c2c2b;fill-opacity:1;stroke:none;stroke-width:0.290999"
         d="m 40.658915,43.909024 v 0.139798 0.08768 h 1.03608 v 3.590475 h -0.02337 C 41.50091,47.43986 41.311234,47.233964 41.101708,47.109813 40.899952,46.985641 40.65131,46.923738 40.356433,46.923738 c -0.294885,0 -0.574467,0.06581 -0.838312,0.197766 -0.256081,0.131918 -0.484581,0.310293 -0.686337,0.535332 -0.193998,0.217281 -0.349272,0.473292 -0.465674,0.76817 -0.116405,0.287119 -0.174385,0.594229 -0.174385,0.920147 0,0.310403 0.05406,0.605228 0.162693,0.88459 0.116402,0.279363 0.267743,0.527508 0.453984,0.744787 0.186242,0.209516 0.399506,0.380025 0.640062,0.511953 0.248322,0.124161 0.508266,0.186563 0.77986,0.186563 0.620805,0 1.101859,-0.334136 1.443302,-1.001496 h 0.02337 v 0.634215 0.22748 h 1.908979 v -0.139801 -0.08768 h -0.768171 v -7.396741 h -0.232836 z m -0.232837,3.154512 c 0.225048,0 0.423069,0.06975 0.593785,0.209459 0.178483,0.139676 0.329823,0.310193 0.453984,0.51195 0.147446,0.256081 0.229004,0.523881 0.244529,0.803243 v 0.244526 c 0.0075,0.116405 0.0117,0.275612 0.0117,0.477369 v 0.06965 c 0,0.279363 -0.0118,0.489183 -0.03507,0.628859 -0.02327,0.131927 -0.06608,0.278848 -0.128109,0.441806 -0.05429,0.139676 -0.128027,0.275791 -0.221148,0.407711 -0.0854,0.124171 -0.186092,0.236688 -0.302494,0.337565 -0.108636,0.09313 -0.229028,0.170759 -0.360948,0.232839 -0.131928,0.0543 -0.263613,0.08135 -0.39553,0.08135 -0.116405,0 -0.221552,-0.03879 -0.314673,-0.11642 -0.09313,-0.07758 -0.170759,-0.151308 -0.232839,-0.221147 -0.108636,-0.108644 -0.182339,-0.283076 -0.221145,-0.523642 -0.03884,-0.24832 -0.05797,-0.636505 -0.05797,-1.164187 v -0.174385 c 0,-0.287122 0.0039,-0.527897 0.0117,-0.721895 0.0075,-0.201757 0.01953,-0.368343 0.03507,-0.50026 0.01556,-0.13192 0.03468,-0.241 0.05797,-0.326365 0.03101,-0.09313 0.06591,-0.174193 0.104728,-0.24404 0.06212,-0.108636 0.162818,-0.209862 0.302494,-0.302983 0.147443,-0.100877 0.298783,-0.151004 0.453985,-0.151004 z" />
      <path
         d="m 44.370761,48.879252 h 2.886732 q -0.02328,-0.232797 -0.04656,-0.395755 -0.02328,-0.162969 -0.06985,-0.279362 -0.03488,-0.128045 -0.104771,-0.232807 -0.05816,-0.104752 -0.151318,-0.244438 -0.267721,-0.384115 -0.686759,-0.593639 -0.407397,-0.209523 -0.907924,-0.209523 -0.453963,0 -0.849718,0.197882 -0.395756,0.186242 -0.68676,0.512159 -0.291003,0.325927 -0.465603,0.77988 -0.162959,0.442321 -0.162959,0.942848 0,0.477235 0.1746,0.896283 0.186242,0.419039 0.488877,0.733315 0.314286,0.314286 0.721683,0.500527 0.419048,0.186242 0.896283,0.186242 0.291003,0 0.581997,-0.139686 0.291003,-0.128035 0.5238,-0.3492 0.244448,-0.232797 0.419048,-0.523801 0.1746,-0.302644 0.244438,-0.640203 H 47.02468 q -0.09313,0.314286 -0.1746,0.477244 -0.06985,0.162959 -0.221165,0.337559 -0.232797,0.267721 -0.558715,0.477245 -0.314286,0.197873 -0.663486,0.197873 -0.291003,0 -0.5238,-0.151317 -0.221166,-0.162959 -0.314277,-0.349201 -0.05816,-0.104752 -0.09313,-0.232797 -0.03488,-0.128044 -0.05816,-0.314285 -0.02328,-0.186242 -0.03488,-0.442321 -0.01159,-0.267721 -0.01159,-0.651836 0,-0.05816 -0.01159,-0.197882 0,-0.139686 0.01159,-0.291004 z m 1.676163,-0.1746 h -1.676163 v -0.26772 q 0,-0.733325 0.197883,-1.047601 0.197882,-0.325918 0.721682,-0.325918 0.407398,0 0.60528,0.290994 0.197883,0.291003 0.197883,0.733324 0,0.139686 -0.01159,0.267721 -0.01159,0.116403 -0.03497,0.3492 z"
         style="font-style:normal;font-variant:normal;font-weight:normal;font-stretch:normal;font-size:38.838px;line-height:1.25;font-family:bodidota;-inkscape-font-specification:bodidota;letter-spacing:-2.64583px;fill:#2c2c2b;fill-opacity:1;stroke:none;stroke-width:0.291"
         id="path2284-8" />
      <path
         id="path2286-5"
         style="font-style:normal;font-variant:normal;font-weight:normal;font-stretch:normal;font-size:38.838px;line-height:1.25;font-family:bodidota;-inkscape-font-specification:bodidota;letter-spacing:-2.64583px;fill:#2c2c2b;fill-opacity:1;stroke:none;stroke-width:0.290999"
         d="m 46.615765,43.909024 v 0.22748 h 0.850004 v 7.169261 h -0.826623 v 0.08768 0.139801 h 2.72391 v -0.139801 -0.08768 h -0.803241 v -7.169261 -0.22748 h -1.920669 z" />
      <path
         id="path2288-3"
         style="font-style:normal;font-variant:normal;font-weight:normal;font-stretch:normal;font-size:38.838px;line-height:1.25;font-family:bodidota;-inkscape-font-specification:bodidota;letter-spacing:-2.64583px;fill:#2c2c2b;fill-opacity:1;stroke:none;stroke-width:0.290999"
         d="m 50.402059,46.923738 c -0.44233,0 -0.802991,0.131695 -1.082354,0.395533 -0.271596,0.256078 -0.407711,0.593658 -0.407711,1.012697 0,0.25608 0.06975,0.492923 0.209458,0.710205 0.06985,0.100877 0.140096,0.186381 0.209942,0.256218 0.07758,0.06985 0.166535,0.131763 0.267424,0.186077 0.108636,0.04656 0.236895,0.08935 0.384327,0.128109 0.147445,0.03883 0.321885,0.07368 0.523642,0.104728 0.279362,0.03884 0.508341,0.08153 0.686824,0.128109 0.178483,0.03884 0.314588,0.08896 0.407708,0.151004 0.10088,0.05429 0.170173,0.120647 0.20897,0.198252 0.03884,0.07758 0.05845,0.17441 0.05845,0.290805 0,0.124169 -0.0349,0.25241 -0.104728,0.384327 -0.06212,0.124171 -0.151515,0.236688 -0.26791,0.337568 -0.09639,0.08955 -0.208675,0.162683 -0.335617,0.221634 -0.0755,0.03252 -0.152348,0.05786 -0.229916,0.07501 -0.26887,0.05938 -0.636435,-0.0057 -0.859259,-0.131032 -0.223973,-0.125528 -0.425802,-0.313964 -0.604502,-0.549457 -0.151346,-0.19944 -0.306093,-0.512254 -0.409659,-0.80373 h -0.16172 c 0.107346,0.318979 0.273202,0.663822 0.449602,0.896279 0.188307,0.248143 0.404394,0.45201 0.651265,0.590377 0.216027,0.121078 0.513034,0.19186 0.867052,0.159284 0.168851,-0.01197 0.326462,-0.04668 0.470061,-0.109113 0.186239,-0.07758 0.344959,-0.186189 0.476877,-0.325875 0.139686,-0.139676 0.248768,-0.302816 0.326364,-0.489058 0.07758,-0.186241 0.11642,-0.392126 0.11642,-0.617166 0,-0.892399 -0.566569,-1.408354 -1.699523,-1.548031 -0.457846,-0.05429 -0.772326,-0.124103 -0.943043,-0.209455 -0.162957,-0.09313 -0.244039,-0.236606 -0.244039,-0.430606 0,-0.100877 0.02705,-0.201615 0.08135,-0.302494 0.05429,-0.108636 0.124104,-0.205927 0.209456,-0.291292 0.09313,-0.0854 0.201714,-0.151208 0.325875,-0.197763 0.124161,-0.05429 0.255857,-0.08135 0.395533,-0.08135 0.349209,0 0.644024,0.108587 0.88459,0.325876 0.240554,0.209525 0.407626,0.508284 0.500747,0.896282 h 0.128109 V 48.020214 47.899412 47.01677 h -0.19192 -0.03556 v 0.56797 c -0.06612,-0.104169 -0.129373,-0.187885 -0.180231,-0.230403 -0.178472,-0.155201 -0.348992,-0.263795 -0.51195,-0.325875 -0.155201,-0.06985 -0.345356,-0.104728 -0.570404,-0.104728 z m -1.524649,4.510136 v 0.05261 h 0.01998 z" />
    </g>
  </g>
</svg>
