<?xml version="1.0" encoding="UTF-8" standalone="no"?>
<svg
   xmlns:dc="http://purl.org/dc/elements/1.1/"
   xmlns:cc="http://creativecommons.org/ns#"
   xmlns:rdf="http://www.w3.org/1999/02/22-rdf-syntax-ns#"
   xmlns:svg="http://www.w3.org/2000/svg"
   xmlns="http://www.w3.org/2000/svg"
   width="50mm"
   height="57.734531mm"
   viewBox="0 0 49.999998 57.734532"
   version="1.1"
   id="svg8">
  <defs
     id="defs2" />
  <metadata
     id="metadata5">
    <rdf:RDF>
      <cc:Work
         rdf:about="">
        <dc:format>image/svg+xml</dc:format>
        <dc:type
           rdf:resource="http://purl.org/dc/dcmitype/StillImage" />
        <dc:title></dc:title>
      </cc:Work>
    </rdf:RDF>
  </metadata>
  <g
     id="layer1"
     transform="translate(-6.0341024,-10.270216)">
    <g
       id="g1245">
      <path
         style="color:#000000;font-style:normal;font-variant:normal;font-weight:normal;font-stretch:normal;font-size:medium;line-height:normal;font-family:sans-serif;font-variant-ligatures:normal;font-variant-position:normal;font-variant-caps:normal;font-variant-numeric:normal;font-variant-alternates:normal;font-variant-east-asian:normal;font-feature-settings:normal;font-variation-settings:normal;text-indent:0;text-align:start;text-decoration:none;text-decoration-line:none;text-decoration-style:solid;text-decoration-color:#000000;letter-spacing:normal;word-spacing:normal;text-transform:none;writing-mode:lr-tb;direction:ltr;text-orientation:mixed;dominant-baseline:auto;baseline-shift:baseline;text-anchor:start;white-space:normal;shape-padding:0;shape-margin:0;inline-size:0;clip-rule:nonzero;display:inline;overflow:visible;visibility:visible;isolation:auto;mix-blend-mode:normal;color-interpolation:sRGB;color-interpolation-filters:linearRGB;solid-color:#000000;solid-opacity:1;vector-effect:none;fill:#f8f8f8;fill-opacity:1;fill-rule:nonzero;stroke:none;stroke-width:1.20471;stroke-linecap:round;stroke-linejoin:miter;stroke-miterlimit:4;stroke-dasharray:none;stroke-dashoffset:0;stroke-opacity:1;color-rendering:auto;image-rendering:auto;shape-rendering:auto;text-rendering:auto;enable-background:accumulate;stop-color:#000000"
         d="M 55.43167,53.223387 31.034315,67.309203 6.6369407,53.223387 V 25.051717 L 31.034315,10.965892 55.43167,25.051717 Z"
         id="path2468" />
      <path
         id="path2470"
         style="color:#000000;font-style:normal;font-variant:normal;font-weight:normal;font-stretch:normal;font-size:medium;line-height:normal;font-family:sans-serif;font-variant-ligatures:normal;font-variant-position:normal;font-variant-caps:normal;font-variant-numeric:normal;font-variant-alternates:normal;font-variant-east-asian:normal;font-feature-settings:normal;font-variation-settings:normal;text-indent:0;text-align:start;text-decoration:none;text-decoration-line:none;text-decoration-style:solid;text-decoration-color:#000000;letter-spacing:normal;word-spacing:normal;text-transform:none;writing-mode:lr-tb;direction:ltr;text-orientation:mixed;dominant-baseline:auto;baseline-shift:baseline;text-anchor:start;white-space:normal;shape-padding:0;shape-margin:0;inline-size:0;clip-rule:nonzero;display:inline;overflow:visible;visibility:visible;isolation:auto;mix-blend-mode:normal;color-interpolation:sRGB;color-interpolation-filters:linearRGB;solid-color:#000000;solid-opacity:1;vector-effect:none;fill:#2c2c2b;fill-opacity:1;fill-rule:nonzero;stroke:none;stroke-width:1.20471;stroke-linecap:round;stroke-linejoin:miter;stroke-miterlimit:4;stroke-dasharray:none;stroke-dashoffset:0;stroke-opacity:1;color-rendering:auto;image-rendering:auto;shape-rendering:auto;text-rendering:auto;enable-background:accumulate;stop-color:#000000"
         d="M 31.033702,10.270216 6.0341024,24.703629 V 53.572087 L 31.033702,68.004747 56.034103,53.572087 V 53.223736 24.703629 Z m 0,1.391041 23.795695,13.739095 v 12.388133 0.761188 14.326493 L 31.033702,66.614488 7.2403484,52.876166 h -0.0016 V 52.875223 38.569958 37.809562 25.400201 Z" />
      <path
         id="path2472"
         style="fill:#999999;fill-opacity:1;stroke:none;stroke-width:0.920375;stroke-linecap:round;stroke-miterlimit:4;stroke-dasharray:none;stroke-opacity:1"
         d="m 18.646241,28.409802 h 3.061966 v 10.380887 h -3.061966 z" />
      <path
         id="path2474"
         style="fill:#999999;fill-opacity:1;stroke:none;stroke-width:1.20226;stroke-linecap:round;stroke-miterlimit:4;stroke-dasharray:none;stroke-opacity:1"
         d="m 22.883012,21.701682 h 3.061966 v 17.713366 h -3.061966 z" />
      <path
         id="path2476"
         style="fill:#999999;fill-opacity:1;stroke:none;stroke-width:1.12331;stroke-linecap:round;stroke-miterlimit:4;stroke-dasharray:none;stroke-opacity:1"
         d="M 27.119774,23.742768 H 30.18174 V 39.206071 H 27.119774 Z" />
      <path
         id="path2478"
         style="fill:#999999;fill-opacity:1;stroke:none;stroke-width:0.994192;stroke-linecap:round;stroke-miterlimit:4;stroke-dasharray:none;stroke-opacity:1"
         d="m 31.356575,27.223393 h 3.061963 v 12.11272 h -3.061963 z" />
      <path
         id="path2480"
         style="fill:#999999;fill-opacity:1;stroke:none;stroke-width:0.876661;stroke-linecap:round;stroke-miterlimit:4;stroke-dasharray:none;stroke-opacity:1"
         d="m 35.593335,30.775156 h 3.061963 v 9.418131 h -3.061963 z" />
      <path
         id="path2482"
         style="fill:#999999;fill-opacity:1;stroke:none;stroke-width:0.798129;stroke-linecap:round;stroke-miterlimit:4;stroke-dasharray:none;stroke-opacity:1"
         d="m 39.830076,34.017244 h 3.061973 v 7.806329 h -3.061973 z" />
      <path
         id="path2484"
         style="fill:#999999;fill-opacity:1;stroke:none;stroke-width:0.543269;stroke-linecap:round;stroke-miterlimit:4;stroke-dasharray:none;stroke-opacity:1"
         d="m 44.066893,36.716094 h 3.061963 v 3.616832 h -3.061963 z" />
      <path
         id="path2486"
         style="color:#000000;font-style:normal;font-variant:normal;font-weight:normal;font-stretch:normal;font-size:medium;line-height:normal;font-family:sans-serif;font-variant-ligatures:normal;font-variant-position:normal;font-variant-caps:normal;font-variant-numeric:normal;font-variant-alternates:normal;font-variant-east-asian:normal;font-feature-settings:normal;font-variation-settings:normal;text-indent:0;text-align:start;text-decoration:none;text-decoration-line:none;text-decoration-style:solid;text-decoration-color:#000000;letter-spacing:normal;word-spacing:normal;text-transform:none;writing-mode:lr-tb;direction:ltr;text-orientation:mixed;dominant-baseline:auto;baseline-shift:baseline;text-anchor:start;white-space:normal;shape-padding:0;shape-margin:0;inline-size:0;clip-rule:nonzero;display:inline;overflow:visible;visibility:visible;isolation:auto;mix-blend-mode:normal;color-interpolation:sRGB;color-interpolation-filters:linearRGB;solid-color:#000000;solid-opacity:1;vector-effect:none;fill:#b52267;fill-opacity:1;fill-rule:nonzero;stroke:none;stroke-width:1.19744;stroke-linecap:round;stroke-linejoin:miter;stroke-miterlimit:4;stroke-dasharray:none;stroke-dashoffset:0;stroke-opacity:1;color-rendering:auto;image-rendering:auto;shape-rendering:auto;text-rendering:auto;enable-background:accumulate;stop-color:#000000"
         d="m 24.638195,21.537498 c -0.640868,0.01225 -1.22246,0.321619 -1.720771,0.798091 -0.498324,0.476472 -0.932448,1.123849 -1.330542,1.881803 -0.796194,1.515928 -1.445907,3.48465 -2.009917,5.444398 -0.564009,1.959757 -1.038552,3.910371 -1.46101,5.355085 -0.211234,0.722352 -0.400372,1.267417 -0.54303,1.672581 -0.07157,0.203264 -0.154069,0.406068 -0.236254,0.510123 -0.02511,0.03035 -0.07769,0.0344 -0.0811,0.03761 H 7.2388949 v 0.765175 H 17.299059 c 0.252001,0 0.435245,-0.178616 0.565363,-0.336164 0.13008,-0.157548 0.231125,-0.383426 0.336161,-0.613556 0.210075,-0.460259 0.414421,-1.079894 0.630009,-1.817149 0.431161,-1.47451 0.902835,-3.417941 1.46101,-5.357432 0.558184,-1.939491 1.203196,-3.874543 1.951148,-5.298661 0.37399,-0.712049 0.776779,-1.294178 1.184793,-1.684335 0.408045,-0.390128 0.805873,-0.584165 1.224757,-0.592385 0.414691,-0.0075 1.056152,0.196799 1.826556,0.607665 0.77041,0.410856 1.672884,1.014383 2.657556,1.744285 1.969334,1.459815 4.275284,3.427179 6.622154,5.399746 2.346859,1.972521 4.734101,3.951394 6.892485,5.44206 2.158376,1.490657 4.06348,2.521055 5.603087,2.505926 l 6.575127,9.42e-4 v -0.767531 l -6.583356,9.42e-4 c -1.183874,0.01225 -3.061492,-0.914013 -5.177591,-2.375468 -2.116099,-1.461464 -4.494499,-3.429676 -6.838427,-5.399746 -2.343919,-1.97005 -4.653122,-3.941911 -6.65623,-5.42677 -1.001573,-0.742421 -1.924541,-1.365054 -2.748065,-1.804226 -0.823479,-0.439164 -1.542322,-0.706168 -2.187401,-0.69348 z" />
      <path
         id="path2272-0"
         style="font-style:normal;font-variant:normal;font-weight:normal;font-stretch:normal;font-size:38.838px;line-height:1.25;font-family:bodidota;-inkscape-font-specification:bodidota;letter-spacing:-2.64583px;fill:#b52267;fill-opacity:1;stroke:none;stroke-width:0.290999"
         d="m 11.693497,45.416138 a 1.1471922,1.1471922 0 0 1 -0.864618,0.820776 v 0.826622 H 9.8161822 v 0.151004 0.07648 h 1.0126968 v 2.810616 c 0,0.294877 0.01521,0.539099 0.04628,0.7331 0.0388,0.193998 0.105137,0.349271 0.198253,0.465676 0.09312,0.108636 0.21695,0.186282 0.372151,0.232837 0.155199,0.04657 0.353225,0.06966 0.593786,0.06966 0.86912,0 1.392931,-0.368537 1.571411,-1.105737 h -0.139801 c -0.01554,0.131919 -0.05827,0.252312 -0.128109,0.360948 -0.06985,0.108646 -0.154852,0.201517 -0.255731,0.279113 -0.10088,0.07758 -0.209965,0.139998 -0.326362,0.186563 -0.116402,0.04656 -0.224507,0.06966 -0.325389,0.06966 -0.21728,0 -0.357322,-0.08897 -0.419401,-0.267421 -0.05432,-0.186242 -0.08135,-0.504655 -0.08135,-0.954734 v -2.880273 h 1.354648 v -0.22748 h -0.0044 -1.350264 V 45.41615 Z" />
      <path
         d="m 18.323508,49.298291 q 0,-0.512159 -0.174601,-0.942839 -0.174599,-0.442321 -0.488879,-0.756597 -0.302641,-0.314286 -0.733323,-0.488886 -0.43068,-0.186241 -0.942841,-0.186241 -0.48888,0 -0.919562,0.186241 -0.430681,0.1746 -0.744961,0.500527 -0.314281,0.314277 -0.500521,0.744956 -0.174601,0.43068 -0.174601,0.931207 0,0.500518 0.174601,0.942839 0.18624,0.430679 0.500521,0.756597 0.31428,0.314286 0.733321,0.500527 0.430681,0.186242 0.907922,0.186242 0.48888,0 0.907922,-0.186242 0.43068,-0.197882 0.756601,-0.512168 0.32592,-0.325918 0.512162,-0.756598 0.186239,-0.430679 0.186239,-0.919565 z m -3.212647,-1.687795 q 0.104767,-0.197883 0.337561,-0.372483 0.232801,-0.1746 0.535442,-0.1746 0.30264,0 0.5238,0.1746 0.232802,0.162959 0.349201,0.372483 0.13968,0.267711 0.162961,0.663477 0,0.162959 0,0.419038 0.01159,0.25608 0.01159,0.60528 0,0.337568 -0.01159,0.593648 0,0.256079 0,0.419038 -0.01159,0.197883 -0.04656,0.372483 -0.03492,0.162959 -0.116402,0.302635 -0.104753,0.197883 -0.349201,0.384124 -0.232799,0.186241 -0.535441,0.186241 -0.302641,0 -0.523801,-0.186241 -0.22116,-0.186241 -0.337561,-0.384124 -0.13968,-0.267721 -0.162961,-0.675118 0,-0.162959 -0.01159,-0.419038 0,-0.25608 0,-0.593648 0,-0.3492 0,-0.60528 0.01159,-0.256079 0.01159,-0.419038 0.02328,-0.395766 0.162961,-0.663477 z"
         style="font-style:normal;font-variant:normal;font-weight:normal;font-stretch:normal;font-size:38.838px;line-height:1.25;font-family:bodidota;-inkscape-font-specification:bodidota;letter-spacing:-2.64583px;fill:#b52267;fill-opacity:1;stroke:none;stroke-width:0.291"
         id="path2274-9" />
      <path
         id="path2276-7"
         style="font-style:normal;font-variant:normal;font-weight:normal;font-stretch:normal;font-size:38.838px;line-height:1.25;font-family:bodidota;-inkscape-font-specification:bodidota;letter-spacing:-2.64583px;fill:#b52267;fill-opacity:1;stroke:none;stroke-width:1.09984"
         d="M 57.132812 138.5332 C 56.018305 138.5332 55.036096 138.8255 54.185547 139.41211 C 53.334998 139.9987 52.573008 140.92246 51.898438 142.18359 L 51.808594 142.18359 L 51.808594 139.92188 L 51.808594 139.06055 L 44.462891 139.06055 L 44.462891 139.63281 L 44.462891 139.92188 L 47.5 139.92188 L 47.5 166.35742 L 47.111328 166.35742 L 44.462891 166.35742 L 44.462891 166.42578 L 44.462891 167.2168 L 54.457031 167.2168 L 54.457031 166.42578 L 54.457031 166.35742 L 51.808594 166.35742 L 51.808594 159.24219 L 51.808594 153.14062 L 51.898438 153.14062 C 53.130261 155.19366 54.743893 156.21875 56.738281 156.21875 C 57.823463 156.21875 58.862177 155.9694 59.859375 155.4707 C 60.885891 154.97211 61.782357 154.31341 62.544922 153.49219 C 63.307476 152.671 63.909672 151.71604 64.349609 150.63086 C 64.818887 149.54569 65.052734 148.40366 65.052734 147.20117 C 65.052734 145.96932 64.846162 144.82539 64.435547 143.76953 C 64.024954 142.71369 63.467567 141.80356 62.763672 141.04102 C 62.059765 140.24912 61.223725 139.6333 60.255859 139.19336 C 59.288002 138.75341 58.247327 138.5332 57.132812 138.5332 z M 56.957031 139.06055 C 58.15953 139.06055 58.995574 139.501 59.464844 140.38086 C 59.934125 141.23139 60.181612 142.60923 60.210938 144.51562 L 60.255859 147.63867 C 60.314593 150.57161 60.096233 152.6549 59.597656 153.88672 C 59.099061 155.08921 58.218192 155.68945 56.957031 155.68945 C 56.458436 155.68945 55.973165 155.60179 55.503906 155.42578 C 55.063962 155.22059 54.64108 154.973 54.230469 154.67969 C 53.84919 154.35692 53.496445 154.00433 53.173828 153.62305 C 52.851245 153.21246 52.60176 152.80126 52.425781 152.39062 C 52.279136 152.06819 52.162206 151.77372 52.074219 151.50977 C 52.015485 151.24577 51.957096 150.95346 51.898438 150.63086 C 51.869335 150.27887 51.837923 149.85601 51.808594 149.35742 L 51.808594 147.46484 L 51.808594 145.74805 C 51.837696 145.27875 51.882748 144.86758 51.941406 144.51562 C 52.029356 144.13436 52.132646 143.78158 52.25 143.45898 C 52.367279 143.13621 52.529075 142.7856 52.734375 142.4043 C 53.203656 141.52443 53.803889 140.74685 54.537109 140.07227 C 55.299674 139.39768 56.106486 139.06055 56.957031 139.06055 z "
         transform="matrix(0.26458333,0,0,0.26458333,6.0341024,10.270216)" />
      <path
         id="path2278-5"
         style="font-style:normal;font-variant:normal;font-weight:normal;font-stretch:normal;font-size:38.838px;line-height:1.25;font-family:bodidota;-inkscape-font-specification:bodidota;letter-spacing:-2.64583px;fill:#2c2c2b;fill-opacity:1;stroke:none;stroke-width:0.290999"
         d="m 28.638054,46.993393 c -0.403524,0 -0.733726,0.08546 -0.989805,0.25622 -0.256081,0.170727 -0.47327,0.450306 -0.651753,0.838315 h -0.02337 v -0.796912 -0.22748 H 25.06415 v 0.151004 0.07648 h 0.791552 v 4.014749 H 25.06415 v 0.08768 0.139801 h 0.698513 1.94405 v -0.139801 -0.08768 H 27.0082 26.973127 v -1.495422 -0.407224 c 0,-0.155202 0.004,-0.287383 0.0117,-0.396019 0.0077,-0.116403 0.01955,-0.221063 0.03507,-0.314184 0.01554,-0.09313 0.03469,-0.178625 0.05797,-0.256221 0.03103,-0.0854 0.06986,-0.1743 0.116417,-0.267421 0.131917,-0.279362 0.302916,-0.496549 0.512439,-0.651751 0.209515,-0.16296 0.426712,-0.244528 0.65175,-0.244528 0.108636,0 0.19414,0.01526 0.256221,0.04628 0.06985,0.03101 0.123894,0.09347 0.162693,0.186561 0.03884,0.08531 0.06241,0.213116 0.07014,0.38384 0.01556,0.162961 0.02676,0.380636 0.03458,0.65224 l 0.0117,0.500261 v 2.263592 h -0.744789 v 0.08768 0.139801 h 0.640059 1.944052 v -0.139801 -0.08768 h -0.640062 -0.09352 v -1.541698 -0.38433 c 0,-0.193998 0.01566,-0.380237 0.04676,-0.558712 0.03101,-0.186242 0.07777,-0.360684 0.139801,-0.523642 0.108636,-0.287118 0.279153,-0.527896 0.51195,-0.721894 0.232807,-0.201757 0.469639,-0.302494 0.710205,-0.302494 0.178472,0 0.306731,0.05406 0.384327,0.162693 0.07758,0.108646 0.115933,0.298801 0.115933,0.570404 v 0.430603 2.86907 h -0.7331 v 0.08768 0.139801 h 0.698513 1.943564 v -0.139801 -0.08768 h -0.698514 -0.09304 v -2.356631 -0.372638 c 0,-0.100877 -0.0034,-0.185892 -0.0112,-0.255731 -0.0075,-0.06985 -0.01556,-0.13224 -0.02337,-0.186564 -0.0075,-0.05429 -0.01564,-0.112304 -0.02337,-0.174385 -0.06212,-0.294878 -0.213421,-0.527797 -0.453985,-0.698513 -0.232797,-0.178483 -0.519766,-0.26791 -0.861206,-0.26791 -0.325918,0 -0.628609,0.08554 -0.907972,0.25622 -0.170726,0.108636 -0.310764,0.229029 -0.4194,0.360946 -0.108646,0.124161 -0.213306,0.30646 -0.314183,0.547023 h -0.02339 c -0.03874,-0.380249 -0.174425,-0.667198 -0.407222,-0.861206 -0.232807,-0.201757 -0.546799,-0.302983 -0.942553,-0.302983 z" />
      <path
         d="m 38.006619,49.298291 q 0,-0.512159 -0.1746,-0.942839 -0.1746,-0.442321 -0.488877,-0.756597 -0.302644,-0.314286 -0.733324,-0.488886 -0.43068,-0.186241 -0.942839,-0.186241 -0.488886,0 -0.919565,0.186241 -0.43068,0.1746 -0.744966,0.500527 -0.314276,0.314277 -0.500518,0.744956 -0.1746,0.43068 -0.1746,0.931207 0,0.500518 0.1746,0.942839 0.186242,0.430679 0.500518,0.756597 0.314286,0.314286 0.733324,0.500527 0.43068,0.186242 0.907925,0.186242 0.488876,0 0.907924,-0.186242 0.43068,-0.197882 0.756597,-0.512168 0.325918,-0.325918 0.512159,-0.756598 0.186242,-0.430679 0.186242,-0.919565 z m -3.21265,-1.687795 q 0.104772,-0.197883 0.337569,-0.372483 0.232797,-0.1746 0.535441,-0.1746 0.302635,0 0.523801,0.1746 0.232797,0.162959 0.3492,0.372483 0.139676,0.267711 0.162959,0.663477 0,0.162959 0,0.419038 0.01159,0.25608 0.01159,0.60528 0,0.337568 -0.01159,0.593648 0,0.256079 0,0.419038 -0.01159,0.197883 -0.04657,0.372483 -0.03488,0.162959 -0.116394,0.302635 -0.104762,0.197883 -0.3492,0.384124 -0.232807,0.186241 -0.535451,0.186241 -0.302636,0 -0.523801,-0.186241 -0.221155,-0.186241 -0.337559,-0.384124 -0.139676,-0.267721 -0.162959,-0.675118 0,-0.162959 -0.01159,-0.419038 0,-0.25608 0,-0.593648 0,-0.3492 0,-0.60528 0.01159,-0.256079 0.01159,-0.419038 0.02328,-0.395766 0.162959,-0.663477 z"
         style="font-style:normal;font-variant:normal;font-weight:normal;font-stretch:normal;font-size:38.838px;line-height:1.25;font-family:bodidota;-inkscape-font-specification:bodidota;letter-spacing:-2.64583px;fill:#2c2c2b;fill-opacity:1;stroke:none;stroke-width:0.291"
         id="path2280-9" />
      <path
         id="path2282-7"
         style="font-style:normal;font-variant:normal;font-weight:normal;font-stretch:normal;font-size:38.838px;line-height:1.25;font-family:bodidota;-inkscape-font-specification:bodidota;letter-spacing:-2.64583px;fill:#2c2c2b;fill-opacity:1;stroke:none;stroke-width:0.290999"
         d="m 40.658915,43.909024 v 0.139798 0.08768 h 1.03608 v 3.590475 h -0.02337 C 41.50091,47.43986 41.311234,47.233964 41.101708,47.109813 40.899952,46.985641 40.65131,46.923738 40.356433,46.923738 c -0.294885,0 -0.574467,0.06581 -0.838312,0.197766 -0.256081,0.131918 -0.484581,0.310293 -0.686337,0.535332 -0.193998,0.217281 -0.349272,0.473292 -0.465674,0.76817 -0.116405,0.287119 -0.174385,0.594229 -0.174385,0.920147 0,0.310403 0.05406,0.605228 0.162693,0.88459 0.116402,0.279363 0.267743,0.527508 0.453984,0.744787 0.186242,0.209516 0.399506,0.380025 0.640062,0.511953 0.248322,0.124161 0.508266,0.186563 0.77986,0.186563 0.620805,0 1.101859,-0.334136 1.443302,-1.001496 h 0.02337 v 0.634215 0.22748 h 1.908979 v -0.139801 -0.08768 h -0.768171 v -7.396741 h -0.232836 z m -0.232837,3.154512 c 0.225048,0 0.423069,0.06975 0.593785,0.209459 0.178483,0.139676 0.329823,0.310193 0.453984,0.51195 0.147446,0.256081 0.229004,0.523881 0.244529,0.803243 v 0.244526 c 0.0075,0.116405 0.0117,0.275612 0.0117,0.477369 v 0.06965 c 0,0.279363 -0.0118,0.489183 -0.03507,0.628859 -0.02327,0.131927 -0.06608,0.278848 -0.128109,0.441806 -0.05429,0.139676 -0.128027,0.275791 -0.221148,0.407711 -0.0854,0.124171 -0.186092,0.236688 -0.302494,0.337565 -0.108636,0.09313 -0.229028,0.170759 -0.360948,0.232839 -0.131928,0.0543 -0.263613,0.08135 -0.39553,0.08135 -0.116405,0 -0.221552,-0.03879 -0.314673,-0.11642 -0.09313,-0.07758 -0.170759,-0.151308 -0.232839,-0.221147 -0.108636,-0.108644 -0.182339,-0.283076 -0.221145,-0.523642 -0.03884,-0.24832 -0.05797,-0.636505 -0.05797,-1.164187 v -0.174385 c 0,-0.287122 0.0039,-0.527897 0.0117,-0.721895 0.0075,-0.201757 0.01953,-0.368343 0.03507,-0.50026 0.01556,-0.13192 0.03468,-0.241 0.05797,-0.326365 0.03101,-0.09313 0.06591,-0.174193 0.104728,-0.24404 0.06212,-0.108636 0.162818,-0.209862 0.302494,-0.302983 0.147443,-0.100877 0.298783,-0.151004 0.453985,-0.151004 z" />
      <path
         d="m 44.370761,48.879252 h 2.886732 q -0.02328,-0.232797 -0.04656,-0.395755 -0.02328,-0.162969 -0.06985,-0.279362 -0.03488,-0.128045 -0.104771,-0.232807 -0.05816,-0.104752 -0.151318,-0.244438 -0.267721,-0.384115 -0.686759,-0.593639 -0.407397,-0.209523 -0.907924,-0.209523 -0.453963,0 -0.849718,0.197882 -0.395756,0.186242 -0.68676,0.512159 -0.291003,0.325927 -0.465603,0.77988 -0.162959,0.442321 -0.162959,0.942848 0,0.477235 0.1746,0.896283 0.186242,0.419039 0.488877,0.733315 0.314286,0.314286 0.721683,0.500527 0.419048,0.186242 0.896283,0.186242 0.291003,0 0.581997,-0.139686 0.291003,-0.128035 0.5238,-0.3492 0.244448,-0.232797 0.419048,-0.523801 0.1746,-0.302644 0.244438,-0.640203 H 47.02468 q -0.09313,0.314286 -0.1746,0.477244 -0.06985,0.162959 -0.221165,0.337559 -0.232797,0.267721 -0.558715,0.477245 -0.314286,0.197873 -0.663486,0.197873 -0.291003,0 -0.5238,-0.151317 -0.221166,-0.162959 -0.314277,-0.349201 -0.05816,-0.104752 -0.09313,-0.232797 -0.03488,-0.128044 -0.05816,-0.314285 -0.02328,-0.186242 -0.03488,-0.442321 -0.01159,-0.267721 -0.01159,-0.651836 0,-0.05816 -0.01159,-0.197882 0,-0.139686 0.01159,-0.291004 z m 1.676163,-0.1746 h -1.676163 v -0.26772 q 0,-0.733325 0.197883,-1.047601 0.197882,-0.325918 0.721682,-0.325918 0.407398,0 0.60528,0.290994 0.197883,0.291003 0.197883,0.733324 0,0.139686 -0.01159,0.267721 -0.01159,0.116403 -0.03497,0.3492 z"
         style="font-style:normal;font-variant:normal;font-weight:normal;font-stretch:normal;font-size:38.838px;line-height:1.25;font-family:bodidota;-inkscape-font-specification:bodidota;letter-spacing:-2.64583px;fill:#2c2c2b;fill-opacity:1;stroke:none;stroke-width:0.291"
         id="path2284-8" />
      <path
         id="path2286-5"
         style="font-style:normal;font-variant:normal;font-weight:normal;font-stretch:normal;font-size:38.838px;line-height:1.25;font-family:bodidota;-inkscape-font-specification:bodidota;letter-spacing:-2.64583px;fill:#2c2c2b;fill-opacity:1;stroke:none;stroke-width:0.290999"
         d="m 46.615765,43.909024 v 0.22748 h 0.850004 v 7.169261 h -0.826623 v 0.08768 0.139801 h 2.72391 v -0.139801 -0.08768 h -0.803241 v -7.169261 -0.22748 h -1.920669 z" />
      <path
         id="path2288-3"
         style="font-style:normal;font-variant:normal;font-weight:normal;font-stretch:normal;font-size:38.838px;line-height:1.25;font-family:bodidota;-inkscape-font-specification:bodidota;letter-spacing:-2.64583px;fill:#2c2c2b;fill-opacity:1;stroke:none;stroke-width:0.290999"
         d="m 50.402059,46.923738 c -0.44233,0 -0.802991,0.131695 -1.082354,0.395533 -0.271596,0.256078 -0.407711,0.593658 -0.407711,1.012697 0,0.25608 0.06975,0.492923 0.209458,0.710205 0.06985,0.100877 0.140096,0.186381 0.209942,0.256218 0.07758,0.06985 0.166535,0.131763 0.267424,0.186077 0.108636,0.04656 0.236895,0.08935 0.384327,0.128109 0.147445,0.03883 0.321885,0.07368 0.523642,0.104728 0.279362,0.03884 0.508341,0.08153 0.686824,0.128109 0.178483,0.03884 0.314588,0.08896 0.407708,0.151004 0.10088,0.05429 0.170173,0.120647 0.20897,0.198252 0.03884,0.07758 0.05845,0.17441 0.05845,0.290805 0,0.124169 -0.0349,0.25241 -0.104728,0.384327 -0.06212,0.124171 -0.151515,0.236688 -0.26791,0.337568 -0.09639,0.08955 -0.208675,0.162683 -0.335617,0.221634 -0.0755,0.03252 -0.152348,0.05786 -0.229916,0.07501 -0.26887,0.05938 -0.636435,-0.0057 -0.859259,-0.131032 -0.223973,-0.125528 -0.425802,-0.313964 -0.604502,-0.549457 -0.151346,-0.19944 -0.306093,-0.512254 -0.409659,-0.80373 h -0.16172 c 0.107346,0.318979 0.273202,0.663822 0.449602,0.896279 0.188307,0.248143 0.404394,0.45201 0.651265,0.590377 0.216027,0.121078 0.513034,0.19186 0.867052,0.159284 0.168851,-0.01197 0.326462,-0.04668 0.470061,-0.109113 0.186239,-0.07758 0.344959,-0.186189 0.476877,-0.325875 0.139686,-0.139676 0.248768,-0.302816 0.326364,-0.489058 0.07758,-0.186241 0.11642,-0.392126 0.11642,-0.617166 0,-0.892399 -0.566569,-1.408354 -1.699523,-1.548031 -0.457846,-0.05429 -0.772326,-0.124103 -0.943043,-0.209455 -0.162957,-0.09313 -0.244039,-0.236606 -0.244039,-0.430606 0,-0.100877 0.02705,-0.201615 0.08135,-0.302494 0.05429,-0.108636 0.124104,-0.205927 0.209456,-0.291292 0.09313,-0.0854 0.201714,-0.151208 0.325875,-0.197763 0.124161,-0.05429 0.255857,-0.08135 0.395533,-0.08135 0.349209,0 0.644024,0.108587 0.88459,0.325876 0.240554,0.209525 0.407626,0.508284 0.500747,0.896282 h 0.128109 V 48.020214 47.899412 47.01677 h -0.19192 -0.03556 v 0.56797 c -0.06612,-0.104169 -0.129373,-0.187885 -0.180231,-0.230403 -0.178472,-0.155201 -0.348992,-0.263795 -0.51195,-0.325875 -0.155201,-0.06985 -0.345356,-0.104728 -0.570404,-0.104728 z m -1.524649,4.510136 v 0.05261 h 0.01998 z" />
    </g>
  </g>
</svg>
